<?xml version="1.0" standalone="no"?>
<!DOCTYPE svg PUBLIC "-//W3C//DTD SVG 20010904//EN"
 "http://www.w3.org/TR/2001/REC-SVG-20010904/DTD/svg10.dtd">
<svg version="1.0" xmlns="http://www.w3.org/2000/svg"
 width="225.000000pt" height="225.000000pt" viewBox="0 0 225.000000 225.000000"
 preserveAspectRatio="xMidYMid meet">
<metadata>
Created by potrace 1.11, written by Peter Selinger 2001-2013
</metadata>
<g transform="translate(0.000000,225.000000) scale(0.100000,-0.100000)"
fill="#000000" stroke="none">
<path d="M0 1125 l0 -1125 133 1 c123 0 129 1 86 13 -80 21 -163 97 -194 179
-24 63 -17 185 13 243 26 51 111 129 157 144 l35 12 -6 81 c-10 136 33 270
121 372 l34 40 112 -112 112 -111 -26 -31 c-48 -57 -50 -165 -4 -225 50 -64
154 -89 225 -52 17 9 148 132 292 273 l261 257 105 -106 c57 -58 104 -109 104
-115 0 -5 -123 -131 -272 -279 -189 -187 -290 -280 -329 -302 -80 -45 -175
-65 -280 -59 l-86 6 -12 -38 c-13 -45 -81 -125 -125 -148 -17 -9 -49 -22 -71
-29 -33 -10 97 -13 740 -12 429 0 766 3 748 8 -46 11 -117 55 -149 92 -15 18
-38 56 -51 84 l-23 52 -38 -9 c-56 -13 -170 -10 -228 5 -64 17 -156 66 -209
111 l-40 35 112 112 112 112 24 -23 c14 -12 46 -29 71 -36 75 -23 139 -3 194
59 36 41 46 82 37 144 -8 53 -17 64 -342 392 l-203 205 110 110 111 110 273
-275 c150 -151 285 -296 299 -321 50 -86 67 -153 67 -266 0 -90 2 -104 18
-110 119 -40 201 -125 223 -233 4 -19 7 398 8 928 l1 962 -1125 0 -1125 0 0
-1125z m435 1088 c60 -32 115 -90 145 -156 l27 -60 94 2 c70 2 110 -3 160 -18
67 -21 169 -81 203 -120 l20 -22 -109 -109 -108 -109 -41 29 c-143 103 -315
-18 -281 -197 6 -32 43 -74 271 -303 145 -147 264 -270 264 -274 0 -12 -206
-216 -218 -216 -6 0 -132 125 -282 277 -301 308 -327 344 -350 484 -12 68 -9
174 5 210 4 12 -5 20 -38 33 -66 25 -122 79 -158 151 -29 60 -31 70 -27 144 4
61 10 88 31 124 34 57 106 121 160 141 59 22 179 16 232 -11z m1637 0 c53 -24
117 -86 144 -141 29 -56 27 -212 -3 -267 -32 -60 -92 -113 -159 -140 l-59 -24
3 -108 c4 -130 -17 -209 -78 -300 -72 -109 -61 -110 -190 14 l-112 108 30 38
c37 46 46 83 37 145 -10 67 -80 137 -147 147 -89 13 -100 5 -391 -284 l-267
-266 -113 113 -112 114 280 275 c267 263 284 278 365 317 l85 41 131 0 131 0
18 50 c22 63 112 155 176 178 59 22 169 17 231 -10z"/>
<path d="M2240 248 c-1 -48 -31 -107 -80 -156 -49 -49 -82 -68 -137 -81 -29
-7 -6 -9 95 -10 l132 -1 0 140 c0 77 -2 140 -5 140 -3 0 -5 -15 -5 -32z"/>
</g>
</svg>
